<svg xmlns="http://www.w3.org/2000/svg" width="512" height="512" viewBox="0 0 512 512">
  <defs>
    <linearGradient id="bg" x1="0" y1="0" x2="1" y2="1">
      <stop offset="0%" stop-color="#C4151C"/>
      <stop offset="100%" stop-color="#8F0E13"/>
    </linearGradient>
  </defs>
  <rect x="16" y="16" width="480" height="480" rx="96" fill="url(#bg)"/>
  <rect x="16" y="16" width="480" height="480" rx="96" fill="none" stroke="#F5CDD0" stroke-width="8"/>

  <!-- CAEN -->
  <path d="M86 112 H148 V132 H106 V186 H148 V206 H86 Z" fill="#FFFFFF"/>
  <path d="M164 206 L186 112 H222 L244 206 H224 L218 180 H190 L184 206 Z M194 162 H214 L204 124 Z" fill="#FFFFFF"/>
  <path d="M258 112 H322 V132 H278 V148 H316 V166 H278 V186 H322 V206 H258 Z" fill="#FFFFFF"/>
  <path d="M338 112 H362 L398 175 V112 H418 V206 H394 L358 143 V206 H338 Z" fill="#FFFFFF"/>

  <!-- separator -->
  <rect x="82" y="242" width="348" height="10" rx="5" fill="#F6D5D8"/>

  <!-- HV -->
  <path d="M120 286 H140 V330 H192 V286 H212 V400 H192 V348 H140 V400 H120 Z" fill="#FFFFFF"/>
  <path d="M244 286 H266 L292 366 L318 286 H340 L302 400 H282 Z" fill="#FFFFFF"/>
</svg>

